<svg xmlns="http://www.w3.org/2000/svg" version="1.1" xmlns:xlink="http://www.w3.org/1999/xlink" xmlns:svgjs="http://svgjs.dev/svgjs" width="128" height="128" viewBox="0 0 128 128"><g transform="matrix(0.8046875,0,0,0.8046875,12.333870967741937,33.51956107799595)"><svg viewBox="0 0 155 93" data-background-color="#ffffff" preserveAspectRatio="xMidYMid meet" height="76" width="128" xmlns="http://www.w3.org/2000/svg" xmlns:xlink="http://www.w3.org/1999/xlink"><g id="tight-bounds" transform="matrix(1,0,0,1,0.25,-0.14855072463768693)"><svg viewBox="0 0 154.5 93.29710144927536" height="93.29710144927536" width="154.5"><g><svg viewBox="0 0 154.5 93.29710144927536" height="93.29710144927536" width="154.5"><g><svg viewBox="0 0 154.5 93.29710144927536" height="93.29710144927536" width="154.5"><g id="textblocktransform"><svg viewBox="0 0 154.5 93.29710144927536" height="93.29710144927536" width="154.5" id="textblock"><g><svg viewBox="0 0 154.5 93.29710144927536" height="93.29710144927536" width="154.5"><g transform="matrix(1,0,0,1,0,0)"><svg width="154.5" viewBox="-12.5 -31.25 51.75 31.25" height="93.29710144927536" data-palette-color="#ea3c12"><path d="M15.7-31.25L30.7-31.25Q39.25-31.25 39.25-23.6L39.25-23.6Q39.25-20.45 38.3-17.6L38.3-17.6Q36.55-12.2 32.8-10.4L32.8-10.4 36.1 0 25.65 0 23.35-9.3 21.3-9.3 19.7 0 10.2 0 15.7-31.25ZM22.65-17L24.85-17Q26.55-17 27.43-17.38 28.3-17.75 28.63-19.53 28.95-21.3 28.95-21.7L28.95-21.7Q28.95-22.7 28.18-22.98 27.4-23.25 25.65-23.25L25.65-23.25 23.75-23.25 22.65-17ZM9.1-2.4L8.7-0.15-12.5-2.4 9.1-2.4ZM10.8-12.05L10.4-9.8-10.8-12.05 10.8-12.05ZM12.45-21.65L12.05-19.4-9.1-21.65 12.45-21.65ZM13.3-26.45L12.9-24.2-8.25-26.45 13.3-26.45ZM9.95-7.25L9.55-5-11.65-7.25 9.95-7.25ZM14.15-31.25L13.75-29-7.4-31.25 14.15-31.25ZM11.6-16.85L11.2-14.6-9.95-16.85 11.6-16.85Z" opacity="1" transform="matrix(1,0,0,1,0,0)" fill="#ea3c12" class="undefined-text-0" data-fill-palette-color="primary" id="text-0"></path></svg></g></svg></g></svg></g></svg></g><g></g></svg></g><defs></defs></svg><rect width="154.5" height="93.29710144927536" fill="none" stroke="none" visibility="hidden"></rect></g></svg></g></svg>